HIERARCHY
ROOT Hips
{
	OFFSET 0.00000 0.00000 0.00000
	CHANNELS 6 Xposition Yposition Zposition Zrotation Yrotation Xrotation 
	JOINT LHipJoint
	{
		OFFSET 0 0 0
		CHANNELS 3 Zrotation Yrotation Xrotation
		JOINT LeftHip
		{
			OFFSET 1.40252 -1.71424 0.59123
			CHANNELS 3 Zrotation Yrotation Xrotation
			JOINT LeftKnee
			{
				OFFSET 2.50071 -6.87065 0.00000
				CHANNELS 3 Zrotation Yrotation Xrotation
				JOINT LeftAnkle
				{
					OFFSET 2.50834 -6.89162 0.00000
					CHANNELS 3 Zrotation Yrotation Xrotation
					JOINT LeftToe
					{
						OFFSET 0.21528 -0.59149 1.64448
						CHANNELS 3 Zrotation Yrotation Xrotation
						End Site
						{
							OFFSET 0.00000 -0.00000 0.87921
						}
					}
				}
			}
		}
	}
	JOINT RHipJoint
	{
		OFFSET 0 0 0
		CHANNELS 3 Zrotation Yrotation Xrotation
		JOINT RightHip
		{
			OFFSET -1.53651 -1.71424 0.59123
			CHANNELS 3 Zrotation Yrotation Xrotation
			JOINT RightKnee
			{
				OFFSET -2.45783 -6.75285 0.00000
				CHANNELS 3 Zrotation Yrotation Xrotation
				JOINT RightAnkle
				{
					OFFSET -2.51921 -6.92147 0.00000
					CHANNELS 3 Zrotation Yrotation Xrotation
					JOINT RightToe
					{
						OFFSET -0.21777 -0.59831 1.59676
						CHANNELS 3 Zrotation Yrotation Xrotation
						End Site
						{
							OFFSET -0.00000 -0.00000 0.85779
						}
					}
				}
			}
		}
	}
	JOINT lowerback
	{
		OFFSET 0 0 0
		CHANNELS 3 Zrotation Yrotation Xrotation
		JOINT Chest
		{
			OFFSET 0.02212 2.07622 0.03776
			CHANNELS 3 Zrotation Yrotation Xrotation
			JOINT Chest2
			{
				OFFSET -0.00949 2.08009 -0.00123
				CHANNELS 3 Zrotation Yrotation Xrotation
				JOINT lowerneck
				{
					OFFSET 0 0 0
					CHANNELS 3 Zrotation Yrotation Xrotation
					JOINT Neck
					{
						OFFSET 0.00288 1.67184 0.11155
						CHANNELS 3 Zrotation Yrotation Xrotation
						JOINT Head
						{
							OFFSET -0.02412 1.66997 -0.22040
							CHANNELS 3 Zrotation Yrotation Xrotation
							End Site
							{
								OFFSET -0.01026 1.69043 -0.08683
							}
						}
					}
				}
				JOINT LeftCollar
				{
					OFFSET 0 0 0
					CHANNELS 3 Zrotation Yrotation Xrotation
					JOINT LeftShoulder
					{
						OFFSET 3.97941 0.74048 0.81462
CHANNELS 3 Zrotation Xrotation Yrotation
						JOINT LeftElbow
						{
OFFSET 0 -5.018340 -0.000000
CHANNELS 3 Zrotation Xrotation Yrotation
							JOINT LeftWrist
							{
OFFSET 0 -3.486900 0.000000
CHANNELS 3 Zrotation Xrotation Yrotation
								JOINT lhand
								{
									OFFSET 0 0 0
CHANNELS 3 Zrotation Xrotation Yrotation
									JOINT LFingers
									{
OFFSET 0 -0.767990 0.000000
CHANNELS 3 Zrotation Xrotation Yrotation
										End Site
										{
OFFSET 0 -0.619170 0.000000
										}
									}
								}
								JOINT LThumb
								{
OFFSET 0 0.000000 0.000000
CHANNELS 3 Zrotation Xrotation Yrotation
									End Site
									{
OFFSET 0 -0.628630 0.628630
									}
								}
							}
						}
					}
				}
				JOINT RightCollar
				{
					OFFSET 0 0 0
					CHANNELS 3 Zrotation Yrotation Xrotation
					JOINT RightShoulder
					{
						OFFSET -3.88702 1.02123 0.44091
CHANNELS 3 Zrotation Xrotation Yrotation
						JOINT RightElbow
						{
OFFSET 0 -4.701640 0.000000
CHANNELS 3 Zrotation Xrotation Yrotation
							JOINT RightWrist
							{
OFFSET 0 -3.499110 0.000000
CHANNELS 3 Zrotation Xrotation Yrotation
								JOINT rhand
								{
									OFFSET 0 0 0
CHANNELS 3 Zrotation Xrotation Yrotation
									JOINT RFingers
									{
OFFSET 0 -0.739330 0.000000
CHANNELS 3 Zrotation Xrotation Yrotation
										End Site
										{
OFFSET 0 -0.596070 0.000000
										}
									}
								}
								JOINT RThumb
								{
OFFSET 0 0.000000 0.000000
CHANNELS 3 Zrotation Xrotation Yrotation
									End Site
									{
OFFSET 0 -0.605170 0.605170
									}
								}
							}
						}
					}
				}
			}
		}
	}
}
MOTION
Frames: 8
Frame Time: 0.008333333333333333
7.892199 16.833190 4.680610 538.941002 -4.673874 187.592900 0.000000 0.000000 0.000000 -10.845816 -4.256745 -46.093450 7.333240 15.597372 50.109064 -0.279006 -10.331675 -0.998483 0.256045 -3.254766 -8.988925 0.000000 0.000000 0.000000 28.618682 19.005949 -5.540487 -2.948188 -10.610682 30.977941 -1.995562 12.577645 -25.573682 -0.007139 -0.529063 1.453758 3.221618 -6.104207 -4.282849 0.152520 -8.307465 -0.711262 -2.029882 -4.148728 1.218223 4.841292 6.020063 -8.527848 -7.374168 12.800713 28.815593 -1.710567 6.427841 11.588155 0.000000 0.000000 0.000000 -0.452622 -25.515643 -25.168976 42.472409 -49.467599 20.299054 26.024312 -36.359520 -53.128976 0.000000 0.000000 0.000000 -7.125000 0.000000 0.000000 -64.086573 81.442918 56.072617 0.000000 0.000000 0.000000 -0.596460 28.016357 8.789486 -109.125965 -58.570862 -76.484021 -4.553640 -21.839785 15.553611 0.000000 0.000000 0.000000 7.125000 0.000000 0.000000 21.180812 44.479115 0.287492
7.544795 16.812054 4.294249 539.964088 2.171837 186.946846 0.000000 0.000000 0.000000 -10.613976 -2.148023 -44.662205 4.366490 12.618997 37.980162 -0.236097 -9.049784 6.368365 0.053237 1.478751 4.067329 0.000000 0.000000 0.000000 28.056277 18.975628 -3.578808 -2.996149 -10.688629 31.237001 -1.485446 17.740422 -23.519896 -0.035306 -1.210387 3.327839 4.535061 -5.284653 -4.179672 0.237239 -7.230134 -0.447923 -2.619969 -3.577758 1.340811 5.200433 6.140227 -8.372564 -7.586953 12.729050 28.509929 -1.877607 6.360502 11.472933 0.000000 0.000000 0.000000 3.473105 -30.923791 -22.297965 39.673853 -47.872569 18.197861 25.470218 -35.700390 -53.285364 0.000000 0.000000 0.000000 -7.125000 0.000000 0.000000 -65.053839 81.238691 56.780206 0.000000 0.000000 0.000000 -0.605770 28.697256 14.881601 -105.948719 -59.015981 -73.766254 -3.758951 -21.417713 14.836637 0.000000 0.000000 0.000000 7.125000 0.000000 0.000000 21.604767 43.722402 0.716673
7.183146 16.794211 3.843159 540.075185 8.762081 185.804341 0.000000 0.000000 0.000000 -11.554106 -0.310954 -42.080991 3.437227 11.370991 33.541827 0.020208 -3.809193 6.233254 0.122780 2.212503 6.095135 0.000000 0.000000 0.000000 26.262153 18.448092 -2.464768 -3.442043 -11.376194 33.562002 -0.830672 22.059875 -21.197066 -0.095285 -1.988092 5.472813 4.881797 -4.691498 -3.663127 0.109561 -6.450622 0.042466 -2.892459 -3.176985 1.564831 5.589059 6.567745 -8.454430 -7.757718 13.114222 28.302415 -1.955685 6.495597 11.483155 0.000000 0.000000 0.000000 7.010604 -36.509881 -18.946398 36.378193 -45.766558 15.794497 25.764030 -32.750858 -52.691439 0.000000 0.000000 0.000000 -7.125000 0.000000 0.000000 -61.274715 81.229252 53.235403 0.000000 0.000000 0.000000 -0.755678 28.479495 19.632658 -103.654496 -59.283352 -71.796634 -2.733272 -19.420572 13.982755 0.000000 0.000000 0.000000 7.125000 0.000000 0.000000 22.173173 42.821525 1.261101
6.835459 16.764947 3.330540 538.635359 14.482957 184.571992 0.000000 0.000000 0.000000 -14.358709 0.945422 -40.516006 4.279974 12.522971 37.609501 -0.000185 0.260312 0.133555 0.017395 0.753003 2.069912 0.000000 0.000000 0.000000 22.271838 18.451059 -3.564811 -4.662324 -12.984185 39.324403 0.347268 25.706074 -15.830330 -0.308650 -3.549691 9.815415 3.872725 -4.123095 -3.134234 -0.401798 -5.618865 -0.221809 -2.778249 -2.786325 1.111258 5.522714 6.592924 -7.757844 -7.690650 13.298084 28.784764 -1.921933 6.617427 11.537540 0.000000 0.000000 0.000000 8.694994 -40.931213 -16.749798 32.130695 -42.639531 12.833362 26.080403 -28.531223 -52.395465 0.000000 0.000000 0.000000 -7.125000 0.000000 0.000000 -59.379958 81.283665 51.530890 0.000000 0.000000 0.000000 -0.055571 28.598790 21.417365 -101.727670 -59.472940 -70.138368 -0.120684 -16.337622 14.393936 0.000000 0.000000 0.000000 7.125000 0.000000 0.000000 24.544594 42.925320 1.344854
6.489818 16.769031 2.854172 536.152484 17.755835 183.586903 0.000000 0.000000 0.000000 -16.824716 -2.245500 -37.840174 4.502999 12.801323 38.629093 0.018404 1.742949 -3.762760 0.031139 -1.091938 -3.002483 0.000000 0.000000 0.000000 16.137862 17.873343 -9.296979 -7.220974 -15.506756 49.690912 1.740989 25.649171 -3.363770 -0.969634 -6.260898 17.546084 2.201027 -4.257079 -2.959999 -1.234691 -5.714060 -0.582763 -2.677781 -2.847871 0.713532 5.879627 6.818434 -7.412107 -7.953136 13.677226 28.963149 -2.037528 6.802509 11.620549 0.000000 0.000000 0.000000 9.485134 -45.264205 -13.366865 26.870275 -38.052427 9.420130 25.664449 -25.196550 -52.399983 0.000000 0.000000 0.000000 -7.125000 0.000000 0.000000 -59.468699 81.101339 51.443057 0.000000 0.000000 0.000000 0.562620 27.976522 22.912904 -98.403010 -59.731311 -67.270619 0.422746 -13.370727 13.528625 0.000000 0.000000 0.000000 7.125000 0.000000 0.000000 24.671680 42.082329 1.904210
6.160003 16.752147 2.444567 534.094192 20.828494 182.216928 0.000000 0.000000 0.000000 -19.802957 -1.273582 -35.390975 4.428631 12.709790 38.291738 0.147991 0.452845 -7.437324 0.243456 -3.172195 -8.758786 0.000000 0.000000 0.000000 10.960251 17.162565 -17.405298 -11.088955 -17.972378 63.062634 1.183044 18.858518 8.234115 -1.171488 -6.868516 19.326980 0.692056 -4.248257 -1.874959 -1.800330 -5.640331 -0.646652 -2.328650 -2.812844 0.135761 5.868809 7.265280 -7.502581 -8.290499 14.277078 28.594751 -2.074478 7.002967 11.579267 0.000000 0.000000 0.000000 9.888569 -47.760341 -11.083752 23.590291 -34.727047 7.472315 24.340407 -23.969793 -50.843839 0.000000 0.000000 0.000000 -7.125000 0.000000 0.000000 -51.143810 79.947443 42.824334 0.000000 0.000000 0.000000 0.764268 27.694765 24.119263 -97.488999 -59.786980 -66.481028 -2.078727 -11.990603 12.717565 0.000000 0.000000 0.000000 7.125000 0.000000 0.000000 22.282999 41.584800 1.987794
5.870174 16.703969 2.080523 532.703122 21.839118 181.351457 0.000000 0.000000 0.000000 -23.273343 0.573665 -33.734981 4.123068 12.322376 36.882260 0.263187 -0.300604 -9.584021 0.206726 -2.927751 -8.077799 0.000000 0.000000 0.000000 8.512932 13.730831 -24.313291 -14.414728 -19.227128 73.460796 0.464974 12.084332 6.380627 -0.301687 -3.351585 9.277443 0.388331 -4.320599 -1.422012 -2.600380 -5.709658 -0.605410 -2.942093 -2.840894 -0.130647 6.301479 7.305769 -7.426625 -8.827117 14.292606 28.170515 -2.346043 6.986189 11.480847 0.000000 0.000000 0.000000 8.803965 -47.629798 -13.196737 23.318100 -34.434767 7.317430 23.947204 -23.424009 -51.365423 0.000000 0.000000 0.000000 -7.125000 0.000000 0.000000 -54.116956 79.996119 45.532284 0.000000 0.000000 0.000000 1.387555 27.812618 24.630166 -97.912048 -59.762086 -66.846548 -6.252853 -11.869465 12.161326 0.000000 0.000000 0.000000 7.125000 0.000000 0.000000 18.568391 41.457248 1.686324
5.643425 16.685922 1.841283 532.689820 20.705283 181.675472 0.000000 0.000000 0.000000 -24.278675 -2.606521 -32.854535 4.229435 12.459568 37.377851 0.318731 0.171436 -10.727786 0.201383 -2.887040 -7.964642 0.000000 0.000000 0.000000 9.762577 9.187404 -30.233346 -16.806786 -19.753297 80.626586 0.100536 6.984271 -1.863902 -0.044806 -1.334032 3.668806 0.189678 -4.625521 -0.991377 -2.459780 -6.123988 -0.735113 -2.645890 -3.050844 -0.489950 5.934023 6.989649 -7.415808 -9.163019 14.095411 28.352922 -2.433741 6.844738 11.532351 0.000000 0.000000 0.000000 4.013695 -44.954885 -18.068725 25.357131 -36.561504 8.503950 23.884751 -24.946247 -50.950253 0.000000 0.000000 0.000000 -7.125000 0.000000 0.000000 -51.971112 79.796827 43.428950 0.000000 0.000000 0.000000 1.099083 28.033709 23.662277 -99.315792 -59.669369 -68.058723 -11.395975 -14.508384 11.905701 0.000000 0.000000 0.000000 7.125000 0.000000 0.000000 14.071348 41.692288 1.174896
